<svg version="1.0" xmlns="http://www.w3.org/2000/svg" xmlns:xlink="http://www.w3.org/1999/xlink" width="100%" height="100%" viewBox="0 0 216 216">
  <g fill="#0059ff" transform="translate(3,3)">
    <!-- <svg opacity=".5" x="0" y="0" width="210" height="210" style="overflow: visible;" viewBox="0 0 65 65" xmlns="http://www.w3.org/2000/svg" stroke="#0059ff">
      <path d="M57 0a8 8 0 0 1 8 8v49a8 8 0 0 1-8 8H8a8 8 0 0 1-8-8V8a8 8 0 0 1 8-8h49zm.408 2H7.592a5.592 5.592 0 0 0-5.588 5.367L2 7.592v49.816a5.592 5.592 0 0 0 5.367 5.588l.225.004h49.816a5.592 5.592 0 0 0 5.588-5.367l.004-.225V7.592a5.592 5.592 0 0 0-5.367-5.588L57.408 2z"></path>
    </svg> -->
    <g transform="translate(30,21) scale(1.25)">
      <svg x="0" y="0" width="127" height="105" viewBox="0 0 181 151">
        <path d="M181.41 39.39L173.26 42l-42.15 13Q113.53 60.34 96 65.79q-21.08 6.49-42.15 13c-2.33.72-4.67 1.42-7 2.2-.94.33-1.41.22-1.91-.75Q34.22 59.8 23.43 39.44 14.51 22.54 5.62 5.6L3.18 1C3 .73 2.76.45 3 .16s.54-.16.83-.09l14.84 2.16L37.91 5 56.5 7.69c7.15 1 14.29 2 21.44 3.08l20.91 3.06c4.08.6 8.2 1.06 12.26 1.81 3.47.64 6.71 2.1 10 3.22Q140.57 25.39 160 32l20.38 6.91a10.42 10.42 0 0 1 1.03.48z" fill="#0059ff"></path>
        <path opacity=".5" d="M0 59.34l7.58-1.79c3.35-.78 6.72-1.46 10-2.37 1.24-.33 1.6.2 2.06 1.08q6.88 13.11 13.81 26.21c2 3.74 4 7.46 5.89 11.21a1.28 1.28 0 0 0 1.84.77q21.24-6.6 42.5-13.14l44.51-13.73 25.3-7.81h.26c0 .48-.46.61-.75.82l-68.15 49c-5.9 4.24-11.81 8.47-17.68 12.76-.9.65-1.41.71-2.27-.12Q41.52 99.64 18 77.05L.82 60.47c-.3-.3-.7-.47-.82-1.13z" fill="#3062bf"></path>
        <path opacity=".5" d="M161.16 67.29a41.12 41.12 0 0 1-4.09 5.27q-23.44 28.71-46.92 57.44-8.27 10.11-16.5 20.22a1.33 1.33 0 0 1-2 .41Q62.85 135.79 34 121.05q-10.63-5.44-21.24-10.92a1.46 1.46 0 0 1-.88-.71l5-2.8c3.41-1.92 6.84-3.81 10.23-5.77a1.17 1.17 0 0 1 1.67.22q17.64 17.06 35.32 34.09a1.3 1.3 0 0 0 2 .15Q92.76 116.1 119.4 97q20.08-14.45 40.17-28.86c.43-.36.68-1.02 1.59-.85z" fill="#3062bf"></path>
      </svg>
    </g>
    <g transform="scale(1.5) translate(23.5, 123)">
      <path d="M1.63-13.88L1.63-13.88 9.89-13.88Q11.66-13.88 13.15-12.21L13.15-12.21Q14.03-10.95 14.03-9.83L14.03-9.83 14.03-9.26Q14.03-7.58 12.38-6.12L12.38-6.12Q11.11-5.22 9.8-5.22L9.8-5.22 3.48-5.22 3.48-1.66Q3.48-0.53 2.18-0.03L2.18-0.03Q2.03 0 1.94 0L1.94 0 1.55 0Q0.67 0 0.11-1.06L0.11-1.06Q0-1.35 0-1.56L0-1.56 0-12.26Q0-13.32 1.24-13.82L1.24-13.82Q1.45-13.88 1.63-13.88ZM10.55-10.43L3.48-10.43 3.48-8.63 10.55-8.63 10.55-10.43ZM16.63-13.88L16.63-13.88 24.89-13.88Q26.66-13.88 28.15-12.21L28.15-12.21Q29.03-10.95 29.03-9.83L29.03-9.83 29.03-9.26Q29.03-7.57 27.35-6.09L27.35-6.09Q26.32-5.43 25.71-5.32L25.71-5.32 25.71-5.3Q27.86-3.4 28.54-2.65L28.54-2.65Q28.84-2.15 28.84-1.69L28.84-1.69Q28.84-0.6 27.62-0.06L27.62-0.06Q27.38 0 27.26 0L27.26 0 26.87 0Q26.2 0 25.08-1.2L25.08-1.2Q24.7-1.52 20.69-5.22L20.69-5.22 18.48-5.22 18.48-1.66Q18.48-0.53 17.18-0.03L17.18-0.03Q17.03 0 16.94 0L16.94 0 16.55 0Q15.67 0 15.11-1.06L15.11-1.06Q15-1.35 15-1.56L15-1.56 15-12.26Q15-13.32 16.24-13.82L16.24-13.82Q16.45-13.88 16.63-13.88ZM25.55-10.43L18.48-10.43 18.48-8.63 25.55-8.63 25.55-10.43ZM31.63-13.88L31.63-13.88 42.45-13.88Q43.35-13.88 43.93-12.84L43.93-12.84Q44.03-12.52 44.03-12.35L44.03-12.35 44.03-11.96Q44.03-11.13 42.99-10.57L42.99-10.57Q42.65-10.43 42.35-10.43L42.35-10.43 33.48-10.43 33.48-8.66 40.34-8.66Q41.64-8.66 42.1-7.63L42.1-7.63Q42.23-7.33 42.23-7.07L42.23-7.07 42.23-6.83Q42.23-5.78 40.99-5.27L40.99-5.27Q40.79-5.22 40.61-5.22L40.61-5.22 33.48-5.22 33.48-3.45 42.15-3.45Q43.68-3.45 44.03-1.96L44.03-1.96 44.03-1.5Q44.03-0.7 43.04-0.14L43.04-0.14Q42.75 0 42.51 0L42.51 0 31.55 0Q30.67 0 30.11-1.06L30.11-1.06Q30-1.35 30-1.56L30-1.56 30-12.26Q30-13.32 31.24-13.82L31.24-13.82Q31.45-13.88 31.63-13.88ZM51.91-13.88L51.91-13.88 57.45-13.88Q58.34-13.88 58.93-12.84L58.93-12.84Q59.03-12.52 59.03-12.35L59.03-12.35 59.03-11.96Q59.03-11.13 57.99-10.57L57.99-10.57Q57.65-10.43 57.35-10.43L57.35-10.43 52.68-10.43Q49.92-10.43 48.7-8.11L48.7-8.11Q48.48-7.47 48.48-6.88L48.48-6.88Q48.48-4.99 50.63-3.85L50.63-3.85Q51.58-3.45 52.46-3.45L52.46-3.45 57.18-3.45Q58.54-3.45 59-2.16L59-2.16 59.03-1.89 59.03-1.5Q59.03-0.7 58.04-0.14L58.04-0.14Q57.75 0 57.51 0L57.51 0 51.74 0Q49.46 0 47.26-1.83L47.26-1.83Q46.02-3.1 45.75-3.82L45.75-3.82Q45-5.3 45-6.67L45-6.67 45-7.18Q45-9.66 47.07-11.85L47.07-11.85Q49.3-13.88 51.91-13.88ZM61.67-13.88L61.67-13.88 61.94-13.88Q62.83-13.88 63.42-12.89L63.42-12.89Q63.58-12.57 63.58-12.13L63.58-12.13 63.58-1.66Q63.58-0.53 62.25-0.03L62.25-0.03Q62.09 0 61.99 0L61.99 0 61.6 0Q60.69 0 60.12-1.06L60.12-1.06Q60-1.35 60-1.56L60-1.56 60-12.26Q60-13.32 61.28-13.82L61.28-13.82Q61.49-13.88 61.67-13.88ZM66.17-13.88L66.17-13.88 77-13.88Q77.89-13.88 78.47-12.84L78.47-12.84Q78.58-12.52 78.58-12.35L78.58-12.35 78.58-11.96Q78.58-11.13 77.54-10.57L77.54-10.57Q77.2-10.43 76.9-10.43L76.9-10.43 68.03-10.43 68.03-8.66 74.99-8.66Q76.24-8.66 76.7-7.37L76.7-7.37Q76.76-7.17 76.76-7L76.76-7 76.76-6.88Q76.76-5.74 75.44-5.25L75.44-5.25 75.15-5.22 68.03-5.22 68.03-1.66Q68.03-0.53 66.73-0.03L66.73-0.03Q66.58 0 66.48 0L66.48 0 66.1 0Q65.22 0 64.65-1.06L64.65-1.06Q64.55-1.35 64.55-1.56L64.55-1.56 64.55-12.26Q64.55-13.32 65.79-13.82L65.79-13.82Q66-13.88 66.17-13.88ZM81.13-13.88L81.13-13.88 81.4-13.88Q82.08-13.88 82.92-12.95L82.92-12.95Q86.54-9.38 86.59-9.37L86.59-9.37Q90.87-13.65 91.02-13.65L91.02-13.65Q91.42-13.88 91.73-13.88L91.73-13.88 92-13.88Q92.92-13.88 93.47-12.81L93.47-12.81Q93.58-12.53 93.58-12.32L93.58-12.32 93.58-11.99Q93.58-11.25 92.31-10.19L92.31-10.19 88.31-6.23 88.31-1.62Q88.31-0.55 87.04-0.03L87.04-0.03 86.76 0 86.37 0Q85.52 0 84.94-1.06L84.94-1.06Q84.82-1.4 84.82-1.64L84.82-1.64 84.82-6.23Q79.81-11.16 79.8-11.23L79.8-11.23Q79.55-11.7 79.55-12.02L79.55-12.02 79.55-12.26Q79.55-13.22 80.62-13.77L80.62-13.77Q80.9-13.88 81.13-13.88Z"></path>
    </g>
  </g>
</svg>