<svg xmlns="http://www.w3.org/2000/svg" xmlns:xlink="http://www.w3.org/1999/xlink" viewBox="4 0 88 96" fill="#ffaf00">
  <path d="M48 52c-4.412 0-8-3.588-8-8v-36c0-4.412 3.588-8 8-8 4.416 0 8 3.588 8 8v36c0 4.412-3.584 8-8 8zM48 4c-2.204 0-4 1.792-4 4v36c0 2.208 1.796 4 4 4s4-1.792 4-4v-36c0-2.208-1.796-4-4-4z"></path>
  <path d="M48 96c-24.26 0-44-19.74-44-44 0-16.856 9.868-32.44 25.14-39.708 0.624-0.3 1.348-0.252 1.928 0.108 0.58 0.372 0.932 1.004 0.932 1.696v13.936c0 0.628-0.296 1.228-0.796 1.596-7.12 5.36-11.204 13.512-11.204 22.364 0 15.436 12.56 28 28 28 15.436 0 28-12.564 28-28 0-8.852-4.084-17.004-11.204-22.36-0.5-0.38-0.796-0.968-0.796-1.596v-13.94c0-0.696 0.352-1.324 0.928-1.7 0.584-0.36 1.312-0.416 1.928-0.104 15.276 7.26 25.144 22.852 25.144 39.708 0 24.26-19.744 44-44 44zM28 17.412c-12.248 7.1-20 20.352-20 34.588 0 22.056 17.944 40 40 40s40-17.944 40-40c0-14.244-7.752-27.488-20-34.588v9.652c7.64 6.12 12 15.152 12 24.936 0 17.644-14.356 32-32 32s-32-14.356-32-32c0-9.784 4.36-18.816 12-24.936v-9.652z"></path>
</svg>