<svg xmlns="http://www.w3.org/2000/svg" xmlns:xlink="http://www.w3.org/1999/xlink" width="100%" height="100%" viewBox="0 0 257 56">
  <g fill="#0059ff">
    <g transform="translate(0, 8.154140625)">
      <path d="M4.92-42.01L4.92-42.01L29.94-42.01Q35.30-42.01 39.81-36.97L39.81-36.97Q42.48-33.13 42.48-29.77L42.48-29.77L42.48-28.04Q42.48-22.91 37.38-18.43L37.38-18.43Q34.28-16.44 32.43-16.11L32.43-16.11L32.43-16.05Q38.94-10.28 40.99-8.03L40.99-8.03Q41.89-6.50 41.89-5.13L41.89-5.13Q41.89-1.82 38.20-0.18L38.20-0.18Q37.47 0 37.12 0L37.12 0L35.95 0Q33.90 0 30.53-3.63L30.53-3.63Q29.36-4.60 17.23-15.79L17.23-15.79L10.55-15.79L10.55-5.04Q10.55-1.61 6.59-0.09L6.59-0.09Q6.15 0 5.86 0L5.86 0L4.69 0Q2.02 0 0.32-3.22L0.32-3.22Q0-4.07 0-4.72L0-4.72L0-37.12Q0-40.31 3.75-41.84L3.75-41.84Q4.39-42.01 4.92-42.01ZM31.93-31.58L10.55-31.58L10.55-26.13L31.93-26.13L31.93-31.58Z" transform="translate(0, 42.01171875)"></path>
    </g>
    <g transform="translate(46, 8.154140625)">
      <path d="M20.86-42.01L20.86-42.01L21.77-42.01Q25.02-42.01 27.01-36.83L27.01-36.83Q42.04-7.21 42.48-6.04L42.48-6.04L42.48-4.45Q42.48-1.79 38.96-0.18L38.96-0.18Q38.20 0 37.73 0L37.73 0L36.97 0Q33.69 0 31.67-5.36L31.67-5.36Q21.33-25.81 21.18-25.93L21.18-25.93Q9.61-2.67 8.96-1.73L8.96-1.73Q7.24 0 5.39 0L5.39 0L4.66 0Q1.99 0 0.26-3.22L0.26-3.22Q0-4.16 0-4.72L0-4.72L0-5.36Q0-6.53 2.99-12.13L2.99-12.13L17.11-40.02Q18.78-42.01 20.86-42.01Z" transform="translate(0, 42.01171875)"></path>
    </g>
    <g transform="translate(92, 8.154140625)">
      <path d="M4.92-42.01L4.92-42.01L37.71-42.01Q40.40-42.01 42.16-38.88L42.16-38.88Q42.48-37.91 42.48-37.38L42.48-37.38L42.48-36.21Q42.48-34.10 38.73-30.94L38.73-30.94Q36.24-28.36 18.31-10.52L18.31-10.52L18.22-10.52L18.22-10.43L36.62-10.43Q41.10-10.43 42.30-6.62L42.30-6.62Q42.48-6.30 42.48-5.71L42.48-5.71L42.48-4.54Q42.48-2.11 39.46-0.41L39.46-0.41Q38.61 0 37.88 0L37.88 0L4.69 0Q2.02 0 0.32-3.22L0.32-3.22Q0-4.07 0-4.72L0-4.72L0-5.63Q0-8.06 3.75-11.16L3.75-11.16Q10.78-18.25 24.17-31.58L24.17-31.58L5.36-31.58Q1.64-31.58 0.18-35.30L0.18-35.30Q0-36.06 0-36.39L0-36.39L0-37.12Q0-40.31 3.75-41.84L3.75-41.84Q4.39-42.01 4.92-42.01Z" transform="translate(0, 42.01171875)"></path>
    </g>
    <g transform="translate(138, 8.154140625)">
      <path d="M5.07-42.01L5.07-42.01L5.86-42.01Q8.55-42.01 10.34-39.02L10.34-39.02Q10.84-38.06 10.84-36.71L10.84-36.71L10.84-5.04Q10.84-1.61 6.80-0.09L6.80-0.09Q6.33 0 6.04 0L6.04 0L4.83 0Q2.08 0 0.35-3.22L0.35-3.22Q0-4.07 0-4.72L0-4.72L0-37.12Q0-40.31 3.87-41.84L3.87-41.84Q4.51-42.01 5.07-42.01Z" transform="translate(0, 42.01171875)"></path>
    </g>

    <!-- <g transform="translate(161, 6)">
        <rect fill="#000" fill-opacity="0" stroke-width="2" x="0" y="0" width="42.912" height="45.098842891824575" class="image-rect"></rect> <svg x="0" y="0" width="42.912" height="45.098842891824575" filtersec="colorsb2915949253" class="image-svg-svg primary" style="overflow: visible;"><svg xmlns="http://www.w3.org/2000/svg" viewBox="0.000019073486328125 0 195.5634002685547 205.52999877929688"></rect>
            <path d="M156.44 38.73a70 70 0 0 0-12.63-4.14A28.64 28.64 0 0 1 133.72 45a26.71 26.71 0 0 1 4.82 1.87c1.39.72 2.73 1.43 4 2.11 9.82 5.19 19 8 23.12 6.73a20 20 0 0 0 4.52-2s-1.9 5.74-4.62 8.24c-1.23 1.13-15 16.46-42.32 7.68a51.43 51.43 0 0 1-9.57-4.47 16.06 16.06 0 0 1-.14 3.05C111.85 80.63 95.83 95 95.15 95.62l-2.52 2.24-1.5-3c-.36-.72-8.15-16.59-6.58-27.7q-3.25 1.75-7.05 3.53a34 34 0 0 1-14.56 3.45c-18.06 0-29.12-15.85-29.47-16.38-2.86-4.24-2.45-6-2.45-6a40.74 40.74 0 0 0 5.1 2.48c6.65 2.62 12.79.57 23-6 1.22-.78 2.49-1.58 3.81-2.4a24.82 24.82 0 0 1 6.43-2.73 27.8 27.8 0 0 1-8.53-9.73 61.05 61.05 0 0 0-21.73 5.34C10 51.2-2.43 79.09.39 112.78c4.13 49.29 34.61 92.75 97.39 92.75s93.26-43.46 97.39-92.75c2.83-33.69-9.56-61.58-38.73-74.05zM166.95 149c-1.45 3.58-4.94 5.68-7.78 4.7s-4-4.68-2.53-8.26 4.94-5.68 7.78-4.7 3.98 4.68 2.53 8.26zm13.43-38c-1.5 12.18-8.55 23-13.18 22.59s-.67-8.39-.77-20.83-3.67-22.09 1.19-26.16c9.38-7.88 14.72 8.47 12.75 24.4z" fill="#f20"></path>
            <path d="M124.68 64.8a36.25 36.25 0 0 0 34.52-4.1c-6.19-.34-12.13-3.47-19-7.12-1.28-.68-2.6-1.37-4-2.08a52 52 0 0 0-11.11-3.63c-2.86-.54-9.28-1-9.28-1a49.41 49.41 0 0 1 9.28-3.61c13.26-3.63 17-15.36 18.05-22.27-3.28 1.67-8.49 3.39-16.78 4.65a32.71 32.71 0 0 0-17.43 8.22A22.78 22.78 0 0 0 105 40s.29-10.95 1.29-15.19C108 17.5 114 5.83 117.65.89L107.51 0c-9 11.31-10.38 21.79-10.6 32.2a73.71 73.71 0 0 0 .43 7.51s-2.57-3.1-3.56-4.24-6.07-6.81-12.92-8.67c-9.11-2.46-15.16-4-19-6.8a37.8 37.8 0 0 0 1.34 5.76c2.59 8.11 7.73 13.69 14.69 15.91s9.59 3.89 9.59 3.89a75.7 75.7 0 0 0-9.5.27 39.22 39.22 0 0 0-12.29 4.39c-1.3.81-2.55 1.6-3.76 2.37-6.81 4.33-12.63 8-18.79 8.21 6.23 5.58 17.54 12.1 32.17 5.2 4.89-2.3 10.87-5.63 12.52-6.61l5.31-3.17s-1.31 3-1.92 4.67a45.54 45.54 0 0 0-1.45 5.63c-1 6.45 1.9 16.59 4.51 22.78 4.41-4.41 12.45-12.75 14-21.17a17.37 17.37 0 0 0-.54-7.51c-.7-1.93-1.14-3.62-1.14-3.62s2.54 1 5.36 2.36 6.9 3.17 12.72 5.44z" fill="#0f0"></path>
      </g> -->
    <g transform="translate(155, 0)">
      <svg x="0" y="0" width="55" height="55" fill="#0059ff" viewBox="4 0 88 96">
        <path d="M48 52c-4.412 0-8-3.588-8-8v-36c0-4.412 3.588-8 8-8 4.416 0 8 3.588 8 8v36c0 4.412-3.584 8-8 8zM48 4c-2.204 0-4 1.792-4 4v36c0 2.208 1.796 4 4 4s4-1.792 4-4v-36c0-2.208-1.796-4-4-4z"></path>
        <path d="M48 96c-24.26 0-44-19.74-44-44 0-16.856 9.868-32.44 25.14-39.708 0.624-0.3 1.348-0.252 1.928 0.108 0.58 0.372 0.932 1.004 0.932 1.696v13.936c0 0.628-0.296 1.228-0.796 1.596-7.12 5.36-11.204 13.512-11.204 22.364 0 15.436 12.56 28 28 28 15.436 0 28-12.564 28-28 0-8.852-4.084-17.004-11.204-22.36-0.5-0.38-0.796-0.968-0.796-1.596v-13.94c0-0.696 0.352-1.324 0.928-1.7 0.584-0.36 1.312-0.416 1.928-0.104 15.276 7.26 25.144 22.852 25.144 39.708 0 24.26-19.744 44-44 44zM28 17.412c-12.248 7.1-20 20.352-20 34.588 0 22.056 17.944 40 40 40s40-17.944 40-40c0-14.244-7.752-27.488-20-34.588v9.652c7.64 6.12 12 15.152 12 24.936 0 17.644-14.356 32-32 32s-32-14.356-32-32c0-9.784 4.36-18.816 12-24.936v-9.652z"></path>
      </svg>
    </g>

    <g transform="translate(214, 8.154140625)">
      <path d="M4.92-42.01L4.92-42.01L5.68-42.01Q7.94-42.01 10.28-39.38L10.28-39.38Q25.05-24.84 31.93-18.19L31.93-18.19L31.93-36.39Q31.93-40.31 35.54-41.78L35.54-41.78Q36.33-42.01 36.97-42.01L36.97-42.01L37.71-42.01Q40.40-42.01 42.16-38.88L42.16-38.88Q42.48-37.91 42.48-37.38L42.48-37.38L42.48-4.54Q42.48-2.11 39.46-0.41L39.46-0.41Q38.61 0 37.88 0L37.88 0L36.71 0Q34.45 0 31.11-3.90L31.11-3.90L10.55-23.99L10.55-5.04Q10.55-1.61 6.59-0.09L6.59-0.09Q6.15 0 5.86 0L5.86 0L4.69 0Q2.02 0 0.32-3.22L0.32-3.22Q0-4.07 0-4.72L0-4.72L0-37.12Q0-40.31 3.75-41.84L3.75-41.84Q4.39-42.01 4.92-42.01Z" transform="translate(0, 42.01171875)"></path>
    </g>
  </g>
</svg>