<svg version="1.0" xmlns="http://www.w3.org/2000/svg" xmlns:xlink="http://www.w3.org/1999/xlink" width="100%" height="100%" viewBox="0 0 216 216">
  <g fill="#0059ff" transform="translate(3,3)">
    <!-- <svg opacity=".5" x="0" y="0" width="210" height="210" viewBox="0 0 65 65" stroke="#0059ff">
      <path d="M57 0a8 8 0 0 1 8 8v49a8 8 0 0 1-8 8H8a8 8 0 0 1-8-8V8a8 8 0 0 1 8-8h49zm.408 2H7.592a5.592 5.592 0 0 0-5.588 5.367L2 7.592v49.816a5.592 5.592 0 0 0 5.367 5.588l.225.004h49.816a5.592 5.592 0 0 0 5.588-5.367l.004-.225V7.592a5.592 5.592 0 0 0-5.367-5.588L57.408 2z"></path>
    </svg> -->
    <g transform="translate(41,21)">
      <svg x="0" y="0" width="127" height="130">
        <svg xmlns="http://www.w3.org/2000/svg" viewBox="0 0 88 88" fill="#0059FF">
          <path opacity=".5" fill="#3062bf" d="M13.81 27.57H0v13.81H26.13v7.99l11.53-7.45 11.47-7.44-11.47-7.45-11.53-7.51v8.05H13.81z"></path>
          <path d="M13.81 25.77V13.81h60.07v34.42h13.81V0H0v25.77h13.81z"></path>
          <path d="M73.88 63.84h13.81V50.03H58.62v-8.05l-11.53 7.45-11.53 7.51 11.53 7.44 11.53 7.45v-7.99h15.26z"></path>
          <path opacity=".5" fill="#3062bf" d="M73.88 65.64v10.03H13.81V43.18H0v46.31h87.69V65.64H73.88z"></path>
        </svg></svg>
    </g>
    <g transform="translate(17,167) scale(1.3)">
      <path d="M6.91-13.88L6.91-13.88 12.45-13.88Q13.34-13.88 13.93-12.84L13.93-12.84Q14.03-12.52 14.03-12.35L14.03-12.35 14.03-11.96Q14.03-11.13 12.99-10.57L12.99-10.57Q12.65-10.43 12.35-10.43L12.35-10.43 7.68-10.43Q4.92-10.43 3.7-8.11L3.7-8.11Q3.48-7.47 3.48-6.88L3.48-6.88Q3.48-4.99 5.63-3.85L5.63-3.85Q6.58-3.45 7.46-3.45L7.46-3.45 12.18-3.45Q13.54-3.45 14-2.16L14-2.16 14.03-1.89 14.03-1.5Q14.03-0.7 13.04-0.14L13.04-0.14Q12.75 0 12.51 0L12.51 0 6.74 0Q4.46 0 2.26-1.83L2.26-1.83Q1.02-3.1 0.75-3.82L0.75-3.82Q0-5.3 0-6.67L0-6.67 0-7.18Q0-9.66 2.07-11.85L2.07-11.85Q4.3-13.88 6.91-13.88ZM19.83-13.88L19.83-13.88 24.15-13.88Q26.56-13.88 28.29-12.21L28.29-12.21Q29.03-11.26 29.03-10.55L29.03-10.55 29.03-3.33Q29.03-2.26 27.68-1.12L27.68-1.12Q26.01 0 24.07 0L24.07 0 20.01 0Q17.66 0 16-1.44L16-1.44Q15-2.44 15-3.46L15-3.46 15-10.41Q15-12.13 17.34-13.34L17.34-13.34Q18.71-13.88 19.83-13.88ZM25.66-10.44L18.37-10.44 18.37-3.44 25.66-3.44 25.66-10.44ZM31.63-13.88L31.63-13.88 31.88-13.88Q32.67-13.88 33.65-12.68L33.65-12.68Q33.68-12.68 37.05-9.29L37.05-9.29Q41.34-13.65 41.41-13.65L41.41-13.65Q41.87-13.88 42.21-13.88L42.21-13.88 42.45-13.88Q43.35-13.88 43.93-12.84L43.93-12.84Q44.03-12.54 44.03-12.35L44.03-12.35 44.03-1.5Q44.03-0.7 43.04-0.14L43.04-0.14Q42.75 0 42.51 0L42.51 0 42.13 0Q41.37 0 40.8-0.85L40.8-0.85Q40.55-1.2 40.55-1.94L40.55-1.94 40.55-7.9Q38.1-5.44 38.06-5.44L38.06-5.44Q37.6-5.11 37.02-5.11L37.02-5.11Q36.1-5.11 35.08-6.34L35.08-6.34Q33.51-7.93 33.48-7.93L33.48-7.93 33.48-1.72Q33.48-0.45 32.13-0.03L32.13-0.03Q32.09 0 31.94 0L31.94 0 31.55 0Q30.74 0 30.16-0.96L30.16-0.96Q30-1.3 30-1.62L30-1.62 30-12.29Q30-13.28 31.22-13.82L31.22-13.82Q31.47-13.88 31.63-13.88ZM46.63-13.88L46.63-13.88 54.89-13.88Q56.66-13.88 58.15-12.21L58.15-12.21Q59.03-10.95 59.03-9.83L59.03-9.83 59.03-9.26Q59.03-7.58 57.38-6.12L57.38-6.12Q56.11-5.22 54.8-5.22L54.8-5.22 48.48-5.22 48.48-1.66Q48.48-0.53 47.18-0.03L47.18-0.03Q47.03 0 46.94 0L46.94 0 46.55 0Q45.67 0 45.11-1.06L45.11-1.06Q45-1.35 45-1.56L45-1.56 45-12.26Q45-13.32 46.24-13.82L46.24-13.82Q46.45-13.88 46.63-13.88ZM55.55-10.43L48.48-10.43 48.48-8.63 55.55-8.63 55.55-10.43ZM61.63-13.88L61.63-13.88 69.89-13.88Q71.66-13.88 73.15-12.21L73.15-12.21Q74.03-10.95 74.03-9.83L74.03-9.83 74.03-9.26Q74.03-7.57 72.35-6.09L72.35-6.09Q71.32-5.43 70.71-5.32L70.71-5.32 70.71-5.3Q72.86-3.4 73.54-2.65L73.54-2.65Q73.84-2.15 73.84-1.69L73.84-1.69Q73.84-0.6 72.62-0.06L72.62-0.06Q72.38 0 72.26 0L72.26 0 71.87 0Q71.2 0 70.08-1.2L70.08-1.2Q69.7-1.52 65.69-5.22L65.69-5.22 63.48-5.22 63.48-1.66Q63.48-0.53 62.18-0.03L62.18-0.03Q62.03 0 61.94 0L61.94 0 61.55 0Q60.67 0 60.11-1.06L60.11-1.06Q60-1.35 60-1.56L60-1.56 60-12.26Q60-13.32 61.24-13.82L61.24-13.82Q61.45-13.88 61.63-13.88ZM70.55-10.43L63.48-10.43 63.48-8.63 70.55-8.63 70.55-10.43ZM76.63-13.88L76.63-13.88 87.45-13.88Q88.35-13.88 88.93-12.84L88.93-12.84Q89.03-12.52 89.03-12.35L89.03-12.35 89.03-11.96Q89.03-11.13 87.99-10.57L87.99-10.57Q87.65-10.43 87.35-10.43L87.35-10.43 78.48-10.43 78.48-8.66 85.34-8.66Q86.64-8.66 87.1-7.63L87.1-7.63Q87.23-7.33 87.23-7.07L87.23-7.07 87.23-6.83Q87.23-5.78 85.99-5.27L85.99-5.27Q85.79-5.22 85.61-5.22L85.61-5.22 78.48-5.22 78.48-3.45 87.15-3.45Q88.68-3.45 89.03-1.96L89.03-1.96 89.03-1.5Q89.03-0.7 88.04-0.14L88.04-0.14Q87.75 0 87.51 0L87.51 0 76.55 0Q75.67 0 75.11-1.06L75.11-1.06Q75-1.35 75-1.56L75-1.56 75-12.26Q75-13.32 76.24-13.82L76.24-13.82Q76.45-13.88 76.63-13.88ZM94.82-13.88L94.82-13.88 102.44-13.88Q103.5-13.88 104-12.73L104-12.73Q104.03-12.58 104.03-12.48L104.03-12.48 104.03-11.96Q104.03-11.15 103.01-10.57L103.01-10.57Q102.6-10.43 102.35-10.43L102.35-10.43 93.5-10.43 93.5-8.69 98.77-8.69Q101.97-8.69 103.54-6.67L103.54-6.67Q104.03-5.9 104.03-5.38L104.03-5.38 104.03-3.31Q104.03-2.1 102.41-0.93L102.41-0.93Q100.85 0 99.35 0L99.35 0 91.52 0Q90.73 0 90.14-0.9L90.14-0.9Q90-1.19 90-1.42L90-1.42 90-1.8Q90-2.85 91.24-3.36L91.24-3.36Q91.52-3.45 91.88-3.45L91.88-3.45 100.56-3.45 100.56-5.19 94.99-5.19Q92.67-5.19 91-6.64L91-6.64Q90-7.64 90-8.66L90-8.66 90-10.41Q90-12.12 92.34-13.34L92.34-13.34Q93.71-13.88 94.82-13.88ZM109.82-13.88L109.82-13.88 117.44-13.88Q118.5-13.88 119-12.73L119-12.73Q119.03-12.58 119.03-12.48L119.03-12.48 119.03-11.96Q119.03-11.15 118.01-10.57L118.01-10.57Q117.6-10.43 117.35-10.43L117.35-10.43 108.5-10.43 108.5-8.69 113.77-8.69Q116.97-8.69 118.54-6.67L118.54-6.67Q119.03-5.9 119.03-5.38L119.03-5.38 119.03-3.31Q119.03-2.1 117.41-0.93L117.41-0.93Q115.85 0 114.35 0L114.35 0 106.52 0Q105.73 0 105.14-0.9L105.14-0.9Q105-1.19 105-1.42L105-1.42 105-1.8Q105-2.85 106.24-3.36L106.24-3.36Q106.52-3.45 106.88-3.45L106.88-3.45 115.56-3.45 115.56-5.19 109.99-5.19Q107.67-5.19 106-6.64L106-6.64Q105-7.64 105-8.66L105-8.66 105-10.41Q105-12.12 107.34-13.34L107.34-13.34Q108.71-13.88 109.82-13.88ZM124.83-13.88L124.83-13.88 129.15-13.88Q131.56-13.88 133.29-12.21L133.29-12.21Q134.03-11.26 134.03-10.55L134.03-10.55 134.03-3.33Q134.03-2.26 132.68-1.12L132.68-1.12Q131.01 0 129.07 0L129.07 0 125.01 0Q122.66 0 121-1.44L121-1.44Q120-2.44 120-3.46L120-3.46 120-10.41Q120-12.13 122.34-13.34L122.34-13.34Q123.71-13.88 124.83-13.88ZM130.66-10.44L123.37-10.44 123.37-3.44 130.66-3.44 130.66-10.44Z" transform="translate(0, 13.880000114440918)"></path>
    </g>
  </g>
</svg>