<svg version="1.0" xmlns="http://www.w3.org/2000/svg" xmlns:xlink="http://www.w3.org/1999/xlink" width="100%" height="100%" viewBox="0 0 216 216">
  <g fill="#0059ff" transform="translate(3,3)">
    <!-- <svg opacity=".5" x="0" y="0" width="210" height="210" viewBox="0 0 65 65" stroke="#0059ff">
      <path d="M57 0a8 8 0 0 1 8 8v49a8 8 0 0 1-8 8H8a8 8 0 0 1-8-8V8a8 8 0 0 1 8-8h49zm.408 2H7.592a5.592 5.592 0 0 0-5.588 5.367L2 7.592v49.816a5.592 5.592 0 0 0 5.367 5.588l.225.004h49.816a5.592 5.592 0 0 0 5.588-5.367l.004-.225V7.592a5.592 5.592 0 0 0-5.367-5.588L57.408 2z"></path>
    </svg> -->
    <g transform="translate(41, 27)">
      <svg x="0" y="0" width="127" height="115" viewBox="0 0 142 129">
        <defs>
          <linearGradient id="ac09d5f7-d11f-443a-ae0e-c13b0924b9aa" x1="92.82" y1="124.19" x2="105.86" y2="55.94" gradientUnits="userSpaceOnUse">
            <stop offset="0" stop-color="#0059FF"></stop>
            <stop offset="1" stop-color="#3062bf" stop-opacity=".5"></stop>
          </linearGradient>
          <linearGradient id="1470ebb7-7e3b-496f-a5ed-6159c4e30df3" x1="79.4" y1="24.99" x2="178.6" y2="69.21" href="#ac09d5f7-d11f-443a-ae0e-c13b0924b9aa"></linearGradient>
          <linearGradient id="61511b7d-b717-41ed-a773-da649948db42" x1="16250.46" y1="-4132.75" x2="16263.5" y2="-4201" gradientTransform="rotate(180 8149.965 -2063.96)" gradientUnits="userSpaceOnUse">
            <stop offset="0" stop-color="#0059FF"></stop>
            <stop offset="1" stop-color="#3062bf" stop-opacity=".5"></stop>
          </linearGradient>
          <linearGradient id="05efb47e-8736-4ec5-8d95-c56dcdedcb98" x1="16237.04" y1="-4231.95" x2="16336.25" y2="-4187.73" href="#61511b7d-b717-41ed-a773-da649948db42"></linearGradient>
        </defs>
        <path d="M139.4 53.72l-24.78-42.93A21.64 21.64 0 0 0 95.92 0h-10L67.73 54.18h41.86L63.66 129h32.26a21.64 21.64 0 0 0 18.7-10.79l24.78-42.9a21.62 21.62 0 0 0 0-21.59z" fill="url(#ac09d5f7-d11f-443a-ae0e-c13b0924b9aa)"></path>
        <path d="M139.4 53.72l-24.78-42.93A21.64 21.64 0 0 0 95.92 0h-10L67.73 54.18h55.18c16.49 0 21.65 12.19 15.87 22.2l.62-1.07a21.62 21.62 0 0 0 0-21.59z" fill="url(#1470ebb7-7e3b-496f-a5ed-6159c4e30df3)"></path>
        <path d="M2.88 75.31l24.79 42.92A21.62 21.62 0 0 0 46.36 129h10l18.19-54.16H32.7L78.62 0H46.36a21.62 21.62 0 0 0-18.69 10.79L2.88 53.72a21.67 21.67 0 0 0 0 21.59z" fill="url(#61511b7d-b717-41ed-a773-da649948db42)"></path>
        <path d="M2.88 75.31l24.79 42.92A21.62 21.62 0 0 0 46.36 129h10l18.19-54.16H19.37c-16.49 0-21.65-12.19-15.87-22.2l-.62 1.08a21.67 21.67 0 0 0 0 21.59z" fill="url(#05efb47e-8736-4ec5-8d95-c56dcdedcb98)"></path>
      </svg>
    </g>
    <g transform="translate(12,167) scale(1.25)">
      <path d="M6.91-13.88L6.91-13.88 12.45-13.88Q13.34-13.88 13.93-12.84L13.93-12.84Q14.03-12.52 14.03-12.35L14.03-12.35 14.03-11.96Q14.03-11.13 12.99-10.57L12.99-10.57Q12.65-10.43 12.35-10.43L12.35-10.43 7.68-10.43Q4.92-10.43 3.7-8.11L3.7-8.11Q3.48-7.47 3.48-6.88L3.48-6.88Q3.48-4.99 5.63-3.85L5.63-3.85Q6.58-3.45 7.46-3.45L7.46-3.45 12.18-3.45Q13.54-3.45 14-2.16L14-2.16 14.03-1.89 14.03-1.5Q14.03-0.7 13.04-0.14L13.04-0.14Q12.75 0 12.51 0L12.51 0 6.74 0Q4.46 0 2.26-1.83L2.26-1.83Q1.02-3.1 0.75-3.82L0.75-3.82Q0-5.3 0-6.67L0-6.67 0-7.18Q0-9.66 2.07-11.85L2.07-11.85Q4.3-13.88 6.91-13.88ZM19.83-13.88L19.83-13.88 24.15-13.88Q26.56-13.88 28.29-12.21L28.29-12.21Q29.03-11.26 29.03-10.55L29.03-10.55 29.03-3.33Q29.03-2.26 27.68-1.12L27.68-1.12Q26.01 0 24.07 0L24.07 0 20.01 0Q17.66 0 16-1.44L16-1.44Q15-2.44 15-3.46L15-3.46 15-10.41Q15-12.13 17.34-13.34L17.34-13.34Q18.71-13.88 19.83-13.88ZM25.66-10.44L18.37-10.44 18.37-3.44 25.66-3.44 25.66-10.44ZM31.63-13.88L31.63-13.88 31.88-13.88Q32.62-13.88 33.4-13.01L33.4-13.01Q38.27-8.21 40.55-6.01L40.55-6.01 40.55-12.02Q40.55-13.32 41.74-13.8L41.74-13.8Q42-13.88 42.21-13.88L42.21-13.88 42.45-13.88Q43.35-13.88 43.93-12.84L43.93-12.84Q44.03-12.52 44.03-12.35L44.03-12.35 44.03-1.5Q44.03-0.7 43.04-0.14L43.04-0.14Q42.75 0 42.51 0L42.51 0 42.13 0Q41.38 0 40.28-1.29L40.28-1.29 33.48-7.93 33.48-1.66Q33.48-0.53 32.18-0.03L32.18-0.03Q32.03 0 31.94 0L31.94 0 31.55 0Q30.67 0 30.11-1.06L30.11-1.06Q30-1.35 30-1.56L30-1.56 30-12.26Q30-13.32 31.24-13.82L31.24-13.82Q31.45-13.88 31.63-13.88ZM46.54-13.88L46.54-13.88 46.81-13.88Q47.9-13.88 48.57-12.14L48.57-12.14Q48.61-12.13 52-5.31L52-5.31Q52.05-5.36 56.01-13.2L56.01-13.2Q56.56-13.88 57.21-13.88L57.21-13.88 57.49-13.88Q58.35-13.88 58.89-12.92L58.89-12.92Q59.03-12.65 59.03-12.41L59.03-12.41 59.03-12Q59.03-11.72 57.44-8.67L57.44-8.67Q53.49-0.79 53.34-0.6L53.34-0.6Q52.79 0 52.19 0L52.19 0 51.89 0Q50.79 0 50.19-1.58L50.19-1.58Q45.06-11.65 45.06-11.81L45.06-11.81Q45-11.91 45-12.11L45-12.11 45-12.32Q45-13.4 46.32-13.85L46.32-13.85Q46.42-13.88 46.54-13.88ZM61.63-13.88L61.63-13.88 72.45-13.88Q73.35-13.88 73.93-12.84L73.93-12.84Q74.03-12.52 74.03-12.35L74.03-12.35 74.03-11.96Q74.03-11.13 72.99-10.57L72.99-10.57Q72.65-10.43 72.35-10.43L72.35-10.43 63.48-10.43 63.48-8.66 70.34-8.66Q71.64-8.66 72.1-7.63L72.1-7.63Q72.23-7.33 72.23-7.07L72.23-7.07 72.23-6.83Q72.23-5.78 70.99-5.27L70.99-5.27Q70.79-5.22 70.61-5.22L70.61-5.22 63.48-5.22 63.48-3.45 72.15-3.45Q73.68-3.45 74.03-1.96L74.03-1.96 74.03-1.5Q74.03-0.7 73.04-0.14L73.04-0.14Q72.75 0 72.51 0L72.51 0 61.55 0Q60.67 0 60.11-1.06L60.11-1.06Q60-1.35 60-1.56L60-1.56 60-12.26Q60-13.32 61.24-13.82L61.24-13.82Q61.45-13.88 61.63-13.88ZM76.63-13.88L76.63-13.88 84.89-13.88Q86.66-13.88 88.15-12.21L88.15-12.21Q89.03-10.95 89.03-9.83L89.03-9.83 89.03-9.26Q89.03-7.57 87.35-6.09L87.35-6.09Q86.32-5.43 85.71-5.32L85.71-5.32 85.71-5.3Q87.86-3.4 88.54-2.65L88.54-2.65Q88.84-2.15 88.84-1.69L88.84-1.69Q88.84-0.6 87.62-0.06L87.62-0.06Q87.38 0 87.26 0L87.26 0 86.87 0Q86.2 0 85.08-1.2L85.08-1.2Q84.7-1.52 80.69-5.22L80.69-5.22 78.48-5.22 78.48-1.66Q78.48-0.53 77.18-0.03L77.18-0.03Q77.03 0 76.94 0L76.94 0 76.55 0Q75.67 0 75.11-1.06L75.11-1.06Q75-1.35 75-1.56L75-1.56 75-12.26Q75-13.32 76.24-13.82L76.24-13.82Q76.45-13.88 76.63-13.88ZM85.55-10.43L78.48-10.43 78.48-8.63 85.55-8.63 85.55-10.43ZM91.63-13.88L91.63-13.88 102.45-13.88Q103.35-13.88 103.93-12.84L103.93-12.84Q104.03-12.52 104.03-12.35L104.03-12.35 104.03-11.96Q104.03-11.13 102.99-10.57L102.99-10.57Q102.65-10.43 102.35-10.43L102.35-10.43 98.76-10.43 98.76-1.62Q98.76-0.54 97.49-0.03L97.49-0.03 97.21 0 96.82 0Q95.98 0 95.41-1.04L95.41-1.04Q95.27-1.37 95.27-1.66L95.27-1.66 95.27-10.43 91.77-10.43Q90.54-10.43 90.06-11.66L90.06-11.66Q90-11.91 90-12.02L90-12.02 90-12.26Q90-13.32 91.24-13.82L91.24-13.82Q91.45-13.88 91.63-13.88ZM106.63-13.88L106.63-13.88 106.88-13.88Q107.74-13.88 108.32-12.89L108.32-12.89Q108.48-12.57 108.48-12.13L108.48-12.13 108.48-8.66 115.55-8.66 115.55-12.02Q115.55-13.41 116.9-13.85L116.9-13.85Q117.1-13.88 117.21-13.88L117.21-13.88 117.45-13.88Q118.35-13.88 118.93-12.84L118.93-12.84Q119.03-12.52 119.03-12.35L119.03-12.35 119.03-1.5Q119.03-0.7 118.04-0.14L118.04-0.14Q117.75 0 117.51 0L117.51 0 117.13 0Q116.21 0 115.66-1.12L115.66-1.12Q115.55-1.46 115.55-1.86L115.55-1.86 115.55-5.22 108.48-5.22 108.48-1.66Q108.48-0.53 107.18-0.03L107.18-0.03Q107.03 0 106.94 0L106.94 0 106.55 0Q105.67 0 105.11-1.06L105.11-1.06Q105-1.35 105-1.56L105-1.56 105-12.26Q105-13.32 106.24-13.82L106.24-13.82Q106.45-13.88 106.63-13.88ZM124.83-13.88L124.83-13.88 129.15-13.88Q131.56-13.88 133.29-12.21L133.29-12.21Q134.03-11.26 134.03-10.55L134.03-10.55 134.03-3.33Q134.03-2.26 132.68-1.12L132.68-1.12Q131.01 0 129.07 0L129.07 0 125.01 0Q122.66 0 121-1.44L121-1.44Q120-2.44 120-3.46L120-3.46 120-10.41Q120-12.13 122.34-13.34L122.34-13.34Q123.71-13.88 124.83-13.88ZM130.66-10.44L123.37-10.44 123.37-3.44 130.66-3.44 130.66-10.44ZM136.63-13.88L136.63-13.88 144.89-13.88Q146.66-13.88 148.15-12.21L148.15-12.21Q149.03-10.95 149.03-9.83L149.03-9.83 149.03-9.26Q149.03-7.57 147.35-6.09L147.35-6.09Q146.32-5.43 145.71-5.32L145.71-5.32 145.71-5.3Q147.86-3.4 148.54-2.65L148.54-2.65Q148.84-2.15 148.84-1.69L148.84-1.69Q148.84-0.6 147.62-0.06L147.62-0.06Q147.38 0 147.26 0L147.26 0 146.87 0Q146.2 0 145.08-1.2L145.08-1.2Q144.7-1.52 140.69-5.22L140.69-5.22 138.48-5.22 138.48-1.66Q138.48-0.53 137.18-0.03L137.18-0.03Q137.03 0 136.94 0L136.94 0 136.55 0Q135.67 0 135.11-1.06L135.11-1.06Q135-1.35 135-1.56L135-1.56 135-12.26Q135-13.32 136.24-13.82L136.24-13.82Q136.45-13.88 136.63-13.88ZM145.55-10.43L138.48-10.43 138.48-8.63 145.55-8.63 145.55-10.43Z" transform="translate(0, 13.880000114440918)"></path>
    </g>
  </g>
</svg>