<svg version="1.0" xmlns="http://www.w3.org/2000/svg" xmlns:xlink="http://www.w3.org/1999/xlink" width="100%" height="100%" viewBox="0 0 216 216">
  <g fill="#0059ff" transform="translate(3,3)">
    <!-- <svg opacity=".5" x="0" y="0" width="210" height="210" style="overflow: visible;" viewBox="0 0 65 65" xmlns="http://www.w3.org/2000/svg" stroke="#0059ff">
      <path d="M57 0a8 8 0 0 1 8 8v49a8 8 0 0 1-8 8H8a8 8 0 0 1-8-8V8a8 8 0 0 1 8-8h49zm.408 2H7.592a5.592 5.592 0 0 0-5.588 5.367L2 7.592v49.816a5.592 5.592 0 0 0 5.367 5.588l.225.004h49.816a5.592 5.592 0 0 0 5.588-5.367l.004-.225V7.592a5.592 5.592 0 0 0-5.367-5.588L57.408 2z"></path>
    </svg> -->
    <g transform="translate(11.9, 167) scale(.77)" stroke-linejoin="round">
      <path d="M2.94-25.07L2.94-25.07 22.5-25.07Q24.11-25.07 25.16-23.2L25.16-23.2Q25.35-22.62 25.35-22.31L25.35-22.31 25.35-21.61Q25.35-20.11 23.46-19.09L23.46-19.09Q22.85-18.85 22.31-18.85L22.31-18.85 15.82-18.85 15.82-2.92Q15.82-0.98 13.53-0.05L13.53-0.05 13.03 0 12.33 0Q10.8 0 9.77-1.87L9.77-1.87Q9.53-2.48 9.53-3.01L9.53-3.01 9.53-18.85 3.2-18.85Q0.98-18.85 0.1-21.07L0.1-21.07Q0-21.52 0-21.71L0-21.71 0-22.15Q0-24.06 2.24-24.97L2.24-24.97Q2.62-25.07 2.94-25.07ZM39.55-25.07L39.55-25.07 40.09-25.07Q42.03-25.07 43.22-21.98L43.22-21.98Q52.19-4.3 52.45-3.6L52.45-3.6 52.45-2.66Q52.45-1.07 50.35-0.1L50.35-0.1Q49.9 0 49.62 0L49.62 0 49.16 0Q47.21 0 46-3.2L46-3.2Q39.83-15.4 39.74-15.47L39.74-15.47Q32.83-1.59 32.45-1.03L32.45-1.03Q31.42 0 30.32 0L30.32 0 29.88 0Q28.29 0 27.26-1.92L27.26-1.92Q27.1-2.48 27.1-2.81L27.1-2.81 27.1-3.2Q27.1-3.9 28.88-7.24L28.88-7.24 37.31-23.88Q38.31-25.07 39.55-25.07ZM62.91-25.07L62.91-25.07 76.67-25.07Q78.59-25.07 79.5-22.99L79.5-22.99Q79.55-22.73 79.55-22.55L79.55-22.55 79.55-21.61Q79.55-20.14 77.7-19.09L77.7-19.09Q76.96-18.85 76.51-18.85L76.51-18.85 60.53-18.85 60.53-15.7 70.04-15.7Q75.83-15.7 78.66-12.05L78.66-12.05Q79.55-10.67 79.55-9.72L79.55-9.72 79.55-5.98Q79.55-3.79 76.61-1.68L76.61-1.68Q73.8 0 71.09 0L71.09 0 56.94 0Q55.51 0 54.44-1.63L54.44-1.63Q54.2-2.15 54.2-2.57L54.2-2.57 54.2-3.25Q54.2-5.16 56.44-6.07L56.44-6.07Q56.94-6.22 57.59-6.22L57.59-6.22 73.27-6.22 73.27-9.37 63.22-9.37Q59.03-9.37 56-11.99L56-11.99Q54.2-13.79 54.2-15.65L54.2-15.65 54.2-18.81Q54.2-21.89 58.43-24.09L58.43-24.09Q60.9-25.07 62.91-25.07ZM84.34-25.07L84.34-25.07 84.55-25.07Q86.46-25.07 87.44-22.96L87.44-22.96Q87.59-22.41 87.59-21.92L87.59-21.92 87.59-17.24Q101.41-24.42 102.66-24.97L102.66-24.97Q103.03-25.07 103.36-25.07L103.36-25.07 103.71-25.07Q105.72-25.07 106.6-22.76L106.6-22.76Q106.65-22.48 106.65-22.31L106.65-22.31 106.65-21.63Q106.65-19.98 104.41-18.92L104.41-18.92Q92.17-12.55 92.09-12.55L92.09-12.55 92.09-12.52Q104.88-5.96 105.55-5.52L105.55-5.52Q106.65-4.42 106.65-3.44L106.65-3.44 106.65-2.76Q106.65-1.17 104.71-0.19L104.71-0.19Q104.2 0 103.8 0L103.8 0 103.26 0Q102.49 0 99.12-1.87L99.12-1.87 87.59-7.83 87.59-3.15Q87.59-0.93 85.25-0.1L85.25-0.1Q84.87 0 84.55 0L84.55 0 84.45 0Q82.12 0 81.35-2.47L81.35-2.47Q81.3-2.66 81.3-2.85L81.3-2.85 81.3-22.22Q81.3-23.71 83-24.72L83-24.72Q83.68-25.07 84.34-25.07ZM111.34-25.07L111.34-25.07 126.27-25.07Q129.47-25.07 132.16-22.06L132.16-22.06Q133.75-19.77 133.75-17.76L133.75-17.76 133.75-16.73Q133.75-14.72 132.21-12.54L132.21-12.54Q133.75-10.28 133.75-8.39L133.75-8.39 133.75-7.2Q133.75-4.83 131.55-2.33L131.55-2.33Q128.99 0 126.46 0L126.46 0 111.2 0Q109.61 0 108.59-1.92L108.59-1.92Q108.4-2.43 108.4-2.81L108.4-2.81 108.4-22.15Q108.4-24.06 110.64-24.97L110.64-24.97Q111.02-25.07 111.34-25.07ZM127.46-18.85L114.69-18.85 114.69-15.65 127.46-15.65 127.46-18.85ZM127.46-9.42L114.69-9.42 114.69-6.22 127.46-6.22 127.46-9.42ZM144.22-25.07L144.22-25.07 152.04-25.07Q156.39-25.07 159.5-22.06L159.5-22.06Q160.85-20.35 160.85-19.06L160.85-19.06 160.85-6.01Q160.85-4.09 158.4-2.03L158.4-2.03Q155.4 0 151.88 0L151.88 0 144.56 0Q140.31 0 137.3-2.61L137.3-2.61Q135.5-4.41 135.5-6.26L135.5-6.26 135.5-18.81Q135.5-21.91 139.73-24.09L139.73-24.09Q142.2-25.07 144.22-25.07ZM154.77-18.86L141.58-18.86 141.58-6.21 154.77-6.21 154.77-18.86ZM175.05-25.07L175.05-25.07 175.59-25.07Q177.53-25.07 178.72-21.98L178.72-21.98Q187.69-4.3 187.95-3.6L187.95-3.6 187.95-2.66Q187.95-1.07 185.85-0.1L185.85-0.1Q185.4 0 185.12 0L185.12 0 184.66 0Q182.7 0 181.5-3.2L181.5-3.2Q175.33-15.4 175.24-15.47L175.24-15.47Q168.33-1.59 167.95-1.03L167.95-1.03Q166.92 0 165.82 0L165.82 0 165.38 0Q163.79 0 162.76-1.92L162.76-1.92Q162.6-2.48 162.6-2.81L162.6-2.81 162.6-3.2Q162.6-3.9 164.38-7.24L164.38-7.24 172.81-23.88Q173.81-25.07 175.05-25.07ZM192.64-25.07L192.64-25.07 207.57-25.07Q210.77-25.07 213.46-22.06L213.46-22.06Q215.05-19.77 215.05-17.76L215.05-17.76 215.05-16.73Q215.05-13.67 212.01-11L212.01-11Q210.15-9.81 209.05-9.62L209.05-9.62 209.05-9.58Q212.93-6.14 214.16-4.79L214.16-4.79Q214.7-3.88 214.7-3.06L214.7-3.06Q214.7-1.08 212.5-0.1L212.5-0.1Q212.06 0 211.85 0L211.85 0 211.15 0Q209.93 0 207.92-2.17L207.92-2.17Q207.22-2.74 199.98-9.42L199.98-9.42 195.99-9.42 195.99-3.01Q195.99-0.96 193.63-0.05L193.63-0.05Q193.37 0 193.2 0L193.2 0 192.5 0Q190.9 0 189.89-1.92L189.89-1.92Q189.7-2.43 189.7-2.81L189.7-2.81 189.7-22.15Q189.7-24.06 191.94-24.97L191.94-24.97Q192.32-25.07 192.64-25.07ZM208.76-18.85L195.99-18.85 195.99-15.6 208.76-15.6 208.76-18.85ZM219.74-25.07L219.74-25.07 229.82-25.07Q234.25-25.07 238.25-21.57L238.25-21.57Q240.65-19.09 241.35-17.03L241.35-17.03Q242.15-14.81 242.15-13.24L242.15-13.24 242.15-11.89Q242.15-7.64 238.46-3.65L238.46-3.65Q235.7-1.21 233.11-0.49L233.11-0.49Q231.2 0 230.07 0L230.07 0 219.6 0Q218 0 216.99-1.92L216.99-1.92Q216.8-2.43 216.8-2.81L216.8-2.81 216.8-22.15Q216.8-24.06 219.04-24.97L219.04-24.97Q219.42-25.07 219.74-25.07ZM228.32-18.85L223.09-18.85 223.09-6.22 228.67-6.22Q231.92-6.22 234.37-8.69L234.37-8.69Q235.86-10.47 235.86-12.34L235.86-12.34 235.86-12.78Q235.86-15.58 232.76-17.68L232.76-17.68Q230.82-18.85 228.32-18.85L228.32-18.85Z" transform="translate(0, 25.06999969482422)"></path>
    </g>
    <g transform="translate(40,3) scale(1.5)">
      <path fill="#3062bf" opacity=".5" d="M13.66 35.36l60.7-25.63v14.93L25.53 45.28v37.98l-11.87 5.01V35.36z"></path>
      <path fill="#3062bf" opacity=".5" d="M9.56 74.5L0 78.54V25.63L60.7 0v11.94L9.56 33.53V74.5z"></path>
      <path fill="#0059ff" d="M29.62 47.1l60.7-25.62v52.89L29.62 100V47.1z"></path>
    </g>
  </g>
</svg>