<svg version="1.0" xmlns="http://www.w3.org/2000/svg" xmlns:xlink="http://www.w3.org/1999/xlink" width="100%" height="100%" viewBox="0 0 216 216">
  <g fill="#0059ff" transform="translate(3,3)">
    <!-- <svg opacity=".5" x="0" y="0" width="210" height="210" viewBox="0 0 65 65" stroke="#0059ff">
      <path d="M57 0a8 8 0 0 1 8 8v49a8 8 0 0 1-8 8H8a8 8 0 0 1-8-8V8a8 8 0 0 1 8-8h49zm.408 2H7.592a5.592 5.592 0 0 0-5.588 5.367L2 7.592v49.816a5.592 5.592 0 0 0 5.367 5.588l.225.004h49.816a5.592 5.592 0 0 0 5.588-5.367l.004-.225V7.592a5.592 5.592 0 0 0-5.367-5.588L57.408 2z"></path>
    </svg> -->
    <g transform="translate(42, 25) scale(1.3)">
      <path d="M75.28 42h18c3.77.05 5 1.59 4.7 5.28a44.67 44.67 0 0 1-32.89 39.43 27.14 27.14 0 0 1-9.45 1.17c-2.48-.2-4.84-1.19-4.24-4.21 1.46-7.37.5-14.77.73-22.15.15-4.85.1-9.71 0-14.56-.07-3.6 1.62-5.06 5.14-5 6.01.09 12.01.04 18.01.04z" fill="#0059FF"></path>
      <path opacity=".5" d="M23.36 42c5.74 0 11.48.1 17.22 0 3.59-.09 5.63 1.2 5.61 5-.06 12.49-.08 25-.22 37.47 0 2.92-2.08 4-4.7 3.74-11.42-1.34-21.27-5.83-29.12-14.4A44.88 44.88 0 0 1 .31 49.87c-1-6.36.2-7.88 6.6-7.91 5.48-.03 10.97.04 16.45.04z" fill="#3062bf"></path>
      <path opacity=".5" d="M23.45 36.62A18.2 18.2 0 0 1 4.71 18.13 18.48 18.48 0 0 1 22.8 0c9.71-.25 18.64 8.61 18.66 18.51a18.45 18.45 0 0 1-18.01 18.11z" fill="#3062bf"></path>
      <path d="M75.09 36.57c-10-.06-18.32-7.95-18.22-17.38C57 7.91 64.3.46 75.21.52a17.83 17.83 0 0 1 18.18 18.59c-.24 9.56-8.59 17.52-18.3 17.46z" fill="#0059FF"></path>
    </g>
    <g transform="translate(72,185) scale(1.5)">
      <path d="M1.54-13.88L1.54-13.88 1.81-13.88Q2.9-13.88 3.57-12.14L3.57-12.14Q3.61-12.13 7-5.31L7-5.31Q7.05-5.36 11.01-13.2L11.01-13.2Q11.56-13.88 12.21-13.88L12.21-13.88 12.49-13.88Q13.35-13.88 13.89-12.92L13.89-12.92Q14.03-12.65 14.03-12.41L14.03-12.41 14.03-12Q14.03-11.72 12.44-8.67L12.44-8.67Q8.49-0.79 8.34-0.6L8.34-0.6Q7.79 0 7.19 0L7.19 0 6.89 0Q5.79 0 5.19-1.58L5.19-1.58Q0.06-11.65 0.06-11.81L0.06-11.81Q0-11.91 0-12.11L0-12.11 0-12.32Q0-13.4 1.32-13.85L1.32-13.85Q1.42-13.88 1.54-13.88ZM19.83-13.88L19.83-13.88 24.15-13.88Q26.56-13.88 28.29-12.21L28.29-12.21Q29.03-11.26 29.03-10.55L29.03-10.55 29.03-3.33Q29.03-2.26 27.68-1.12L27.68-1.12Q26.01 0 24.07 0L24.07 0 20.01 0Q17.66 0 16-1.44L16-1.44Q15-2.44 15-3.46L15-3.46 15-10.41Q15-12.13 17.34-13.34L17.34-13.34Q18.71-13.88 19.83-13.88ZM25.66-10.44L18.37-10.44 18.37-3.44 25.66-3.44 25.66-10.44ZM31.58-13.88L31.58-13.88 31.85-13.88Q32.54-13.88 33.37-12.95L33.37-12.95Q36.99-9.37 37.05-9.36L37.05-9.36Q41.26-13.6 41.46-13.65L41.46-13.65Q41.86-13.88 42.18-13.88L42.18-13.88 42.45-13.88Q43.37-13.88 43.92-12.81L43.92-12.81Q44.03-12.53 44.03-12.32L44.03-12.32 44.03-11.99Q44.03-11.25 42.74-10.15L42.74-10.15 39.5-6.93Q39.5-6.9 43.62-2.85L43.62-2.85Q44.03-2.35 44.03-1.84L44.03-1.84 44.03-1.59Q44.03-0.52 42.76-0.03L42.76-0.03Q42.61 0 42.51 0L42.51 0 42.13 0Q41.42 0 40.38-1.2L40.38-1.2 37.02-4.49Q33.47-1.02 32.68-0.27L32.68-0.27Q32.25 0 31.91 0L31.91 0 31.52 0Q30.66 0 30.11-1.06L30.11-1.06Q30-1.35 30-1.56L30-1.56 30-1.81Q30-2.65 31.16-3.56L31.16-3.56 34.53-6.93 34.53-6.95Q30.28-11.13 30.28-11.2L30.28-11.2Q30-11.65 30-12.02L30-12.02 30-12.26Q30-13.22 31.07-13.77L31.07-13.77Q31.35-13.88 31.58-13.88Z"></path>
    </g>
  </g>
</svg>